<svg width="35" height="59" viewBox="0 0 35 59" fill="none" xmlns="http://www.w3.org/2000/svg">
<g clip-path="url(#clip0_2_57)">
<path d="M25.7836 30.1605V25.0303H28.5592L34.6702 19.2292C34.7596 19.1525 34.8322 19.0523 34.8823 18.9366C34.9324 18.821 34.9585 18.6933 34.9585 18.5637V1.25791C34.9585 1.0418 34.886 0.83431 34.7565 0.679984C34.6271 0.525659 34.451 0.436801 34.2662 0.432488L15.7007 0.000474409C15.5758 -0.00274272 15.4524 0.0329515 15.3432 0.103892C15.234 0.174832 15.143 0.278462 15.0794 0.40414L10.2164 9.96998C9.99699 10.322 10.1629 11.1125 10.449 14.8243C8.52314 14.8171 8.29086 14.7237 7.98079 15.1244L0.311155 23.9707C0.00640843 24.2675 0 24.5584 0 24.5584L0.504592 42.7229H5.44945V59.0002H23.6144L29.2506 54.4566C29.3476 54.3812 29.4272 54.279 29.4822 54.159C29.5373 54.0391 29.5661 53.9051 29.5661 53.769V35.2208C29.5661 35.0018 29.4917 34.7918 29.3592 34.637C29.2267 34.4822 29.0471 34.3952 28.8597 34.3952H22.7956C24.983 31.4513 25.784 30.8099 25.7836 30.1605V30.1605ZM16.0838 1.661L32.6192 2.04577L26.615 9.46076H12.1177L16.0838 1.661V1.661ZM1.8131 24.5584L8.75966 16.5462L10.5264 16.5963L10.8989 24.5584H1.8131ZM23.6144 56.8517V42.1922L28.1533 37.6134V53.3261L23.6144 56.8516V56.8517ZM27.5446 36.0465L21.8614 41.7794H16.6511L21.5371 36.0465H27.5446ZM24.3707 29.8462L17.7183 38.5744L17.9631 25.0303H24.3707V29.8462ZM28.5934 22.3951L28.761 9.46076L33.5457 3.30378V18.1455L28.5934 22.3951V22.3951Z" fill="black"/>
</g>
<defs>
<clipPath id="clip0_2_57">
<rect width="35" height="59" fill="white"/>
</clipPath>
</defs>
</svg>
