<svg width="685" height="590" viewBox="0 0 685 590" fill="none" xmlns="http://www.w3.org/2000/svg">
<path d="M518.991 457.158L509.796 430.185L494.442 435.416L463.081 343.396L428.118 355.308L428.223 355.621L416.946 404.299L400.901 473.549L410.261 494.215L443.275 482.965L455.293 478.868L468.672 474.307L479.595 506.365L514.559 494.453L503.635 462.395L518.991 457.158ZM455.417 448.717L447.486 451.42L432.297 456.597L442.664 405.124L443.639 400.853L459.477 447.332L455.417 448.717Z" fill="#9DC2E7"/>
<path opacity="0.25" d="M503.635 462.394L514.56 494.452L492.29 484.926L456.697 356.682L443.64 400.854L437.594 425.873L416.948 404.297L428.225 355.62L428.12 355.307L463.082 343.396L494.441 435.417L509.796 430.185L518.992 457.158L503.635 462.394Z" fill="#010101"/>
<path opacity="0.25" d="M455.294 478.867L443.276 482.964L445.042 458.197V453.682L447.487 451.42L449.06 449.967L455.417 448.717C455.418 448.717 455.024 466.909 455.294 478.867Z" fill="#010101"/>
<path d="M455.419 448.716C455.419 448.716 452.415 444.944 447.171 445.38C441.927 445.816 439.001 447.783 438.825 453.245C438.649 458.708 439.952 486.237 438.755 497.162C437.558 508.087 445.006 509.179 445.433 501.095C445.861 493.011 442.696 467.666 445.042 463.515C447.39 459.364 445.961 468.103 448.423 470.944C450.886 473.784 453.507 468.759 450.886 461.986C448.263 455.212 455.419 448.716 455.419 448.716Z" fill="url(#paint0_linear_19_1924)"/>
<path d="M135.243 407.93C134.345 407.93 133.679 407.881 133.392 407.761C133.057 407.62 132.035 407.194 123.113 391.268L124.717 390.37C128.049 396.317 133.103 404.973 134.173 406.08C135.144 406.237 140.479 405.865 145.207 405.39L145.392 407.22C142.415 407.518 137.848 407.93 135.243 407.93Z" fill="#F26647"/>
<path d="M167.585 415.653V416.186C167.585 416.186 167.098 426.295 159.53 425.859C159.511 425.859 159.493 425.854 159.474 425.854C154.794 425.551 149.001 423.367 145.117 421.745C142.676 420.724 140.984 419.924 140.796 419.956C140.304 420.034 146.528 445.927 146.445 447.402C146.436 447.6 146.39 447.811 146.321 448.028C145.88 449.43 144.34 451.112 143.416 451.251C143.319 451.265 143.122 451.085 142.842 450.735C140.028 447.237 128.889 426.917 128.585 420.282C128.259 412.991 131.945 408.6 136.943 407.763C140.63 407.147 151.411 408.632 156.812 409.455C158.73 409.749 159.966 409.956 159.966 409.956L167.585 415.653Z" fill="#0A2533"/>
<path opacity="0.25" d="M146.445 447.402C146.436 447.6 146.39 447.811 146.321 448.028C145.88 449.43 144.34 451.112 143.416 451.251C143.319 451.265 143.122 451.085 142.842 450.735C146.805 445.14 136.446 417.901 138.699 417.823C139.811 417.786 142.271 419.676 145.117 421.745C142.676 420.724 140.984 419.924 140.796 419.956C140.303 420.034 146.528 445.926 146.445 447.402Z" fill="#010101"/>
<path opacity="0.25" d="M167.584 415.653V416.186C167.584 416.186 167.097 426.295 159.529 425.859C161.018 424.669 161.294 422.572 161.183 420.034C161.055 417.096 158.337 412.067 156.811 409.456C158.729 409.75 159.965 409.957 159.965 409.957L167.584 415.653Z" fill="#010101"/>
<path d="M151.479 382.459C151.227 382.855 151.061 383.186 151.061 383.438C151.061 383.438 151.052 383.423 151.034 383.392C150.946 383.236 150.629 382.689 150.221 382.054C149.531 380.988 148.579 379.663 148.004 379.502C147.08 379.249 144.621 382.356 141.297 382.605C141.076 382.625 140.856 382.628 140.63 382.62C136.971 382.454 133.09 377.264 136.207 371.149C137.297 373.388 139.536 373.443 139.536 373.443C139.536 373.443 138.17 373.168 138.12 371.475C142.105 372.183 144.18 369.181 147.623 370.275C151.061 371.364 150.846 373.442 150.846 373.442C150.846 373.442 153.466 372.403 154.284 375.681C154.941 378.303 152.491 380.887 151.479 382.459Z" fill="#0A2533"/>
<path d="M151.034 383.393C150.8 384.22 150.353 385.122 149.751 385.852C149.021 386.745 148.055 387.397 146.965 387.37C144.639 387.315 142.326 384.193 141.297 382.606C144.621 382.358 147.08 379.251 148.004 379.503C148.579 379.664 149.53 380.988 150.221 382.055C150.628 382.69 150.946 383.237 151.034 383.393Z" fill="url(#paint1_linear_19_1924)"/>
<path d="M154.394 383.709C154.394 383.709 152.647 387.7 151.99 386.826C151.636 386.353 150.615 386.041 149.751 385.851C150.354 385.121 150.8 384.219 151.034 383.392C151.053 383.423 151.061 383.438 151.061 383.438C151.061 383.185 151.227 382.854 151.479 382.459C152.748 383.416 154.394 383.709 154.394 383.709Z" fill="url(#paint2_linear_19_1924)"/>
<path d="M166.683 417.414C163.897 417.005 156.362 408.812 156.362 405.286C156.362 404.789 156.307 404.237 156.215 403.636C155.636 399.967 153.517 394.588 152.634 390.786C151.609 386.363 153.084 384.708 153.084 384.708C156.514 378.81 164.276 390.501 168.703 399.875L168.708 399.88C170.197 403.038 171.182 405.971 171.273 407.935C171.59 414.572 169.469 417.823 166.683 417.414Z" fill="#5462AD"/>
<path opacity="0.25" d="M166.684 417.414C163.898 417.005 156.363 408.812 156.363 405.286C156.363 404.789 156.308 404.237 156.216 403.636L156.198 402.064L158.928 387.756C158.928 387.756 162.698 392.239 163.3 400.266C163.898 408.293 172.736 410.04 168.708 399.88C170.197 403.038 171.182 405.971 171.273 407.935C171.591 414.572 169.47 417.823 166.684 417.414Z" fill="#010101"/>
<path d="M160.839 399.718C160.766 399.781 160.637 399.832 160.467 399.879C159.175 400.236 155.41 400.182 153.842 399.874C153.608 399.828 153.419 399.773 153.3 399.718C152.266 399.226 153.3 398.022 152.974 395.893C152.647 393.76 151.828 387.535 154.996 385.622C158.31 383.622 160.728 391.193 160.839 394.964C160.95 398.735 161.552 399.116 160.839 399.718Z" fill="#5462AD"/>
<path d="M160.467 399.879C160.467 399.879 160.316 409.087 158.559 413.432C158.559 413.437 158.559 413.437 158.559 413.441C158.012 414.793 157.309 415.671 156.403 415.653C152.592 415.57 144.032 406.518 143.251 406.187C142.474 405.86 138.58 406.435 138.704 405.86C138.828 405.286 140.345 404.016 141.981 403.405C143.623 402.79 143.333 403.157 153.861 407.994C153.718 407.065 153.778 403.047 153.824 400.771C153.829 400.426 153.839 400.123 153.843 399.875C155.411 400.182 159.175 400.237 160.467 399.879Z" fill="url(#paint3_linear_19_1924)"/>
<path d="M149.585 453.627C149.852 455.268 138.827 466.49 139.401 463.543C139.971 460.592 143.415 451.25 143.415 451.25C144.339 451.111 145.879 449.43 146.32 448.027C147.222 449.59 149.36 452.266 149.585 453.627Z" fill="#5462AD"/>
<path opacity="0.25" d="M159.53 419.162C159.53 419.162 141.833 415.839 138.337 417.446C134.841 419.052 144.733 447.019 144.733 447.019" stroke="white" stroke-width="0.4597" stroke-miterlimit="10"/>
<path opacity="0.25" d="M158.559 413.432C158.895 411.583 159.148 406.209 158.219 404.085C157.594 402.65 155.268 401.418 153.823 400.771C153.828 400.426 153.838 400.123 153.842 399.875C155.41 400.183 159.175 400.237 160.467 399.88C160.467 399.879 160.316 409.087 158.559 413.432Z" fill="#010101"/>
<path d="M444.569 351.151C444.211 352.53 443.612 354.305 442.683 356.681C441.359 360.088 439.359 364.731 436.412 371.204C436.339 374.492 435.291 395.46 435.006 400.287C434.969 400.876 434.946 401.225 434.937 401.271C434.896 401.482 434.138 401.887 433.311 402.094C432.529 402.296 431.693 402.323 431.333 401.845C430.593 400.862 425.596 381.032 425.353 376.363C425.105 371.692 424.86 372.758 430.592 354.162C429.199 354.815 420.17 354.571 420.17 354.571C420.17 354.571 421.825 377.346 421.834 377.511C421.834 377.534 421.821 377.589 421.789 377.667C421.684 377.98 421.351 378.675 420.993 379.024C420.832 379.184 420.667 379.276 420.515 379.23C420.428 379.208 420.216 379.014 419.909 378.688C418.176 376.848 413.422 370.661 410.847 364.891C407.817 358.091 407.076 353.337 409.946 348.588C412.815 343.835 427.342 343.471 427.342 343.471C428.262 343.728 430.375 343.981 432.467 344.478C433.083 344.621 433.7 344.791 434.28 344.984C437.462 346.041 443.524 347.383 444.83 346.63C445.12 347.644 445.185 348.83 444.569 351.151Z" fill="#6561AB"/>
<path d="M456.61 335.318C456.035 335.644 449.36 335.396 444.849 333.676C444.872 334.471 444.973 335.722 445.088 337.143C445.268 339.382 445.475 342.044 445.424 343.984C445.396 345.368 445.236 346.388 444.849 346.623C444.844 346.628 444.839 346.632 444.829 346.632C444.136 347.032 442.103 346.839 439.869 346.416C438.425 346.14 436.9 345.768 435.599 345.395C435.125 345.257 434.68 345.12 434.28 344.986C431.724 344.131 428.534 343.804 427.342 343.473C427.043 343.39 426.873 343.312 426.863 343.22C426.827 342.769 427.971 341.749 428.509 340.682C428.573 340.549 428.659 340.351 428.756 340.098C429.193 338.981 429.878 336.866 430.209 335.519C430.406 334.724 430.481 334.2 430.307 334.291C429.774 334.576 426.619 340.475 426.251 340.475C426.123 340.475 425.488 340.112 424.734 339.601C423.465 338.741 421.87 337.477 421.833 336.875C421.824 336.792 421.847 336.723 421.907 336.668C422.647 335.969 428.297 326.466 430.347 324.439C431.308 323.482 432.444 322.908 433.368 322.568C434.402 322.182 435.183 322.094 435.183 322.094C436.401 322.052 437.629 322.214 438.825 322.517C442.889 323.533 446.618 326.099 448.742 327.367C451.486 329.004 453.371 328.554 454.065 328.963C454.766 329.378 457.179 334.987 456.61 335.318Z" fill="#F26647"/>
<path d="M445.424 343.984C441.645 344.03 433.245 343.694 428.758 340.099C429.195 338.982 429.88 336.867 430.211 335.52C430.211 335.52 439.079 338.209 445.088 337.143C445.268 339.382 445.475 342.044 445.424 343.984Z" fill="#F69181"/>
<path opacity="0.25" d="M438.827 322.519C438.681 324.091 438.124 325.783 436.413 325.65C434 325.462 433.48 323.489 433.37 322.57C434.404 322.184 435.186 322.096 435.186 322.096C436.404 322.054 437.631 322.215 438.827 322.519Z" fill="#010101"/>
<path d="M437.806 319.093C437.806 319.093 437.397 317.415 436.574 316.551C435.908 317.636 433.338 318.192 431.356 318.335C430.418 318.404 429.609 318.381 429.2 318.275C427.807 312.864 432.151 310.491 434.57 310.326C436.983 310.16 439.158 311.958 438.501 314.703C440.67 316.841 437.806 319.093 437.806 319.093Z" fill="#321212"/>
<path d="M437.806 319.093C437.682 319.452 437.489 320.082 437.158 320.67H437.153C436.611 321.649 435.701 322.518 434.124 321.879C434.069 321.856 434.014 321.833 433.963 321.806C432.635 321.203 431.945 320.031 431.596 319.107C431.486 318.817 431.408 318.551 431.357 318.335C433.338 318.192 435.909 317.636 436.575 316.551C436.612 316.593 436.649 316.634 436.685 316.675C437.434 317.567 437.806 319.093 437.806 319.093Z" fill="url(#paint4_linear_19_1924)"/>
<path d="M437.599 323.272C437.356 324.789 434.855 324.707 434.583 323.723C434.44 323.213 434.279 322.721 434.155 322.362C434.045 322.027 433.962 321.81 433.962 321.81V321.806C434.013 321.833 434.068 321.856 434.123 321.879C435.7 322.518 436.61 321.65 437.152 320.67H437.157C436.987 321.01 437.442 321.438 437.594 322.242C437.65 322.532 437.664 322.873 437.599 323.272Z" fill="url(#paint5_linear_19_1924)"/>
<path d="M424.612 383.329C424.368 385.214 414.616 392.588 414.782 391.278C414.942 389.967 419.908 378.69 419.908 378.69C420.216 379.016 420.429 379.21 420.515 379.232C421.007 379.375 421.631 378.124 421.787 377.669C423.098 379.315 424.832 381.646 424.612 383.329Z" fill="#262166"/>
<path d="M431.332 417.198C429.038 412.278 431.332 401.846 431.332 401.846C432.068 402.83 434.854 401.681 434.936 401.272C434.946 401.226 434.968 400.876 435.005 400.288C435.005 400.288 435.373 405.286 435.81 409.52C436.247 413.754 433.627 422.112 431.332 417.198Z" fill="#262166"/>
<path opacity="0.25" d="M430.591 354.163C429.198 354.816 420.169 354.572 420.169 354.572C420.169 354.572 421.824 377.347 421.833 377.512C421.833 377.535 421.819 377.59 421.787 377.668C421.682 377.981 421.35 378.676 420.992 379.025C419.328 371.232 416.009 356.29 418.656 353.725C422.045 350.447 431.221 349.574 431.354 350.291C431.488 351.013 430.591 354.163 430.591 354.163Z" fill="#010101"/>
<path d="M424.095 343.4C423.962 343.676 423.893 343.906 423.935 344.058C424.132 344.821 423.084 354.379 423.466 355.363C423.847 356.347 424.068 359.459 423.847 361.427C423.626 363.395 419.531 364.595 419.531 362.903C419.531 361.207 420.023 357.221 420.188 355.69C420.353 354.164 418.823 343.102 419.232 341.571C419.499 340.573 420.524 338.882 421.204 337.829C421.567 337.264 421.834 336.877 421.834 336.877C421.895 337.837 425.917 340.477 426.252 340.477C426.251 340.476 424.633 342.288 424.095 343.4Z" fill="url(#paint6_linear_19_1924)"/>
<path opacity="0.25" d="M444.569 351.151C442.762 351.018 440.73 350.227 439.314 348.806C437.668 347.16 434.923 345.634 432.468 344.48C433.084 344.623 433.7 344.793 434.28 344.986C437.462 346.043 443.525 347.385 444.831 346.632C445.121 347.644 445.185 348.83 444.569 351.151Z" fill="#010101"/>
<path opacity="0.25" d="M442.684 356.682C441.36 360.089 439.36 364.732 436.413 371.205C436.34 374.493 435.292 395.461 435.007 400.288C434.97 400.877 434.947 401.226 434.938 401.272C434.897 401.483 434.138 401.888 433.311 402.095C433.499 395.024 433.251 379.632 434.447 375.053C435.875 369.573 442.284 357.436 442.684 356.682Z" fill="#010101"/>
<path opacity="0.25" d="M435.599 345.395C435.125 345.257 434.68 345.12 434.28 344.986C431.724 344.131 428.534 343.804 427.342 343.473C427.043 343.39 426.873 343.312 426.863 343.22C426.827 342.769 427.971 341.749 428.509 340.682C429.042 339.615 430.84 334.002 430.307 334.291C429.774 334.576 426.619 340.475 426.251 340.475C426.123 340.475 425.488 340.112 424.734 339.601C424.812 339.468 424.899 339.334 424.996 339.192C426.96 336.296 430.183 332.692 430.729 329.579C431.166 327.285 431.823 328.595 431.712 331.547C431.614 334.196 431.471 342.306 435.599 345.395Z" fill="#010101"/>
<path opacity="0.25" d="M444.849 346.623C444.844 346.628 444.839 346.632 444.829 346.632C444.136 347.032 442.104 346.839 439.87 346.416C443.865 342.412 441.685 331.566 442.311 332.123C443.046 332.776 444.848 333.677 444.848 333.677C444.932 336.628 446.123 345.846 444.849 346.623Z" fill="#010101"/>
<path opacity="0.25" d="M426.251 340.476C426.251 340.476 424.633 342.288 424.095 343.4C424.081 343.156 424.064 342.931 424.04 342.729C423.916 341.557 422.091 339.009 421.203 337.828C421.566 337.263 421.833 336.876 421.833 336.876C421.894 337.837 425.916 340.476 426.251 340.476Z" fill="#010101"/>
<path opacity="0.25" d="M436.683 316.675C435.7 318.85 432.808 319.102 431.594 319.107C431.484 318.817 431.406 318.551 431.355 318.335C433.336 318.192 435.907 317.636 436.573 316.551C436.61 316.593 436.647 316.634 436.683 316.675Z" fill="#010101"/>
<path opacity="0.25" d="M437.594 322.243C437.41 322.386 437.186 322.492 436.905 322.556C435.586 322.855 434.657 322.598 434.156 322.363C434.046 322.028 433.963 321.811 433.963 321.811V321.807C434.014 321.834 434.069 321.857 434.124 321.88C435.701 322.519 436.611 321.651 437.153 320.671H437.158C436.988 321.011 437.443 321.438 437.594 322.243Z" fill="#010101"/>
<path d="M451.082 -34V330" stroke="#0A2533" stroke-width="0.9195" stroke-miterlimit="10"/>
<path d="M459.271 332.394C459.262 332.449 459.249 332.504 459.239 332.555C458.697 335.024 456.72 335.286 456.347 335.125C455.975 334.964 454.991 333.833 454.131 329.848C454.112 329.769 454.099 329.691 454.08 329.609C454.08 329.609 452.223 324.846 451.35 322.556C449.194 321.278 448.785 321.798 448.481 320.322C448.182 318.846 449.139 316.938 449.686 316.662C450.233 316.391 452.688 318.685 453.019 319.531C453.345 320.376 459.763 329.773 459.271 332.394Z" fill="url(#paint7_linear_19_1924)"/>
<path opacity="0.25" d="M459.238 332.555C458.696 335.024 456.719 335.286 456.346 335.125C455.974 334.964 454.99 333.833 454.13 329.848C454.677 330.955 455.519 332.39 456.443 332.983C457.458 333.63 458.599 333.424 459.238 332.555Z" fill="#010101"/>
<path d="M386.852 461.622L381.583 434.714C377.685 414.812 370.168 400.294 359.033 391.153C347.893 382.018 334.134 379.053 317.753 382.262C301.372 385.471 289.755 393.369 282.909 405.951C276.059 418.539 274.588 434.818 278.5 454.79L283.787 481.8C287.672 501.633 295.18 516.119 306.319 525.254C311.022 529.111 316.199 531.869 321.849 533.521C329.577 535.788 338.193 535.985 347.695 534.127C352.619 533.166 357.116 531.773 361.175 529.952C370.571 525.741 377.66 519.245 382.442 510.455C389.293 497.868 390.76 481.588 386.852 461.622ZM353.962 497.739C352.16 503.257 348.349 506.585 342.528 507.725C336.501 508.906 331.604 507.214 327.826 502.645C325.251 499.532 323.049 494.912 321.223 488.784C321.223 488.779 321.223 488.774 321.223 488.774C321.219 488.765 321.219 488.755 321.214 488.742C320.368 485.901 319.605 482.733 318.924 479.244L311.528 441.468C309.795 431.546 309.79 423.887 311.509 418.489C313.229 413.093 317.035 409.814 322.924 408.665C327.416 407.782 331.291 408.541 334.546 410.932H334.551C335.659 411.75 336.697 412.752 337.663 413.948C341.465 418.651 344.407 426.32 346.485 436.944L353.643 473.498C355.659 484.14 355.765 492.217 353.962 497.739Z" fill="#F26647"/>
<path opacity="0.25" d="M356.606 502.787C358.124 505.123 360.141 521.002 361.176 529.953C357.116 531.774 352.619 533.167 347.696 534.128C338.194 535.985 329.578 535.788 321.85 533.522C322.166 532.809 322.456 532.064 322.704 531.301C327.527 516.566 321.5 489.98 321.224 488.784C323.049 494.912 325.251 499.532 327.827 502.645C331.605 507.214 336.502 508.906 342.529 507.725C348.349 506.584 352.161 503.256 353.963 497.739C355.766 492.218 355.659 484.14 353.646 473.497L346.488 436.943C344.41 426.319 341.467 418.65 337.666 413.947C336.7 412.752 335.662 411.75 334.554 410.931C346.181 413.211 355.624 449.209 359.559 466.574C363.489 483.942 363.82 491.974 356.606 502.787Z" fill="#010101"/>
<path d="M323.789 495.847C323.789 495.847 324.543 497.818 328.503 498.91C332.464 500.002 336.178 493.876 338.8 495.847C341.422 497.818 345.618 505.987 349.31 504.743C353.002 503.499 354.094 523.163 352.347 525.348C350.599 527.533 349.342 509.873 344.727 510.401C340.111 510.927 343.607 524.255 340.985 526.659C338.363 529.063 339.456 520.76 336.616 519.23C333.775 517.701 339.675 586.088 335.304 587.18C330.934 588.273 328.094 584.121 329.842 569.483C331.59 554.845 329.404 504.373 326.782 501.751C324.162 499.129 324.326 498.637 323.789 495.847Z" fill="#6561AB"/>
<path d="M323.081 -34V391" stroke="#0A2533" stroke-width="0.9195" stroke-miterlimit="10"/>
<path d="M379.425 298.938C379.425 298.938 375.944 289.393 376.23 288.655C376.517 287.918 380.341 286.525 380.622 286.934C380.901 287.344 383.318 294.759 382.908 295.291C382.498 295.824 379.425 298.938 379.425 298.938Z" fill="#262166"/>
<path d="M321.498 286.421C321.498 286.421 323.623 287.302 324.568 289.597C325.512 291.891 325.144 283.616 325.144 283.616L324.12 282.674L321.498 286.421Z" fill="url(#paint8_linear_19_1924)"/>
<path d="M320.392 286.421C320.392 286.421 323.055 288.408 323.506 288.531C323.956 288.654 324.826 283.451 324.433 282.632C324.038 281.812 322.595 280.993 321.658 281.526C320.72 282.059 319.956 286.099 320.392 286.421Z" fill="url(#paint9_linear_19_1924)"/>
<path d="M327.48 287.016C327.48 287.016 325.359 282.1 324.433 281.24C323.506 280.38 321.786 281.486 321.662 281.936C321.538 282.386 323.72 282.714 324.433 283.452C325.145 284.19 323.219 289.638 325.063 291.564C326.906 293.489 327.48 287.016 327.48 287.016Z" fill="url(#paint10_linear_19_1924)"/>
<path d="M376.804 300.043C376.804 300.043 378.688 299.019 379.098 298.486C379.507 297.953 378.77 295.946 379.958 294.103C381.146 292.259 383.686 292.792 384.3 295.004C384.915 297.216 383.318 300.002 382.58 300.862C381.842 301.722 376.804 305.327 376.804 305.327" fill="url(#paint11_linear_19_1924)"/>
<path d="M378.154 304.317C378.099 304.644 377.763 305.204 377.111 305.968C374.72 308.763 368.132 314.234 356.257 320.487C356.023 321.443 355.839 322.418 355.701 323.392C355.26 326.504 355.268 329.649 355.416 332.476C355.452 333.203 355.498 333.911 355.549 334.591C355.766 337.57 356.061 340.03 355.983 341.455C355.946 342.08 355.836 342.503 355.625 342.691C355.358 342.925 355.076 343.137 354.782 343.326C348.851 347.133 338.056 341.446 336.309 339.735C336.171 339.602 336.088 339.491 336.071 339.413C335.767 338.264 336.944 337.036 337.601 335.068C337.711 334.733 337.823 333.983 337.933 332.958C338.246 329.928 338.517 324.508 338.614 320.43C338.669 317.827 338.655 315.773 338.536 315.23C338.531 315.221 338.531 315.211 338.531 315.211C338.205 313.873 328.26 298.849 325.277 293.525C324.73 292.555 324.417 291.907 324.434 291.723C324.544 290.523 326.838 286.262 327.33 286.317C327.413 286.326 327.718 286.708 328.177 287.342C330.481 290.542 336.677 300.215 337.817 301.447C338.884 302.601 344.313 308.316 346.64 310.766C347.297 311.451 347.707 311.883 347.707 311.883C348.967 311.86 350.229 311.745 351.494 311.548C362.67 309.824 373.654 301.999 376.528 299.824C377.001 299.466 377.255 299.263 377.255 299.263C377.255 299.263 378.402 302.787 378.154 304.317Z" fill="#F47920"/>
<path d="M350.264 316.826C346.452 317.442 346.441 312.482 346.639 310.767C347.296 311.452 347.705 311.884 347.705 311.884C348.965 311.861 350.228 311.746 351.493 311.549C351.967 313.503 351.587 316.615 350.264 316.826Z" fill="#C54527"/>
<path d="M354.123 306.193C353.383 306.639 352.417 306.791 351.185 306.473C350.238 306.234 349.129 305.715 347.837 304.836C347.837 304.836 346.816 306.064 346.734 308.316C344.03 305.981 343.373 303.645 345.667 302.785C344.725 298.689 346.734 297.829 350.09 297.627C353.451 297.42 354.228 300.863 356.236 300.781C356.358 302.617 355.838 305.177 354.123 306.193Z" fill="#262166"/>
<path d="M354.123 306.193C354.086 306.524 354.031 306.905 353.953 307.315C353.502 309.711 352.325 313.053 350.551 312.869C350.459 312.865 350.363 312.846 350.261 312.814C348.666 312.313 347.705 310.764 347.204 309.624C346.873 308.884 346.735 308.318 346.735 308.318C346.762 307.606 346.881 306.994 347.034 306.493C347.36 305.412 347.838 304.838 347.838 304.838C349.13 305.716 350.238 306.236 351.186 306.475C352.417 306.791 353.383 306.639 354.123 306.193Z" fill="url(#paint12_linear_19_1924)"/>
<path d="M350.552 314.28C350.533 315.149 350.414 315.829 349.835 315.87C348.662 315.953 347.104 314.422 347.187 312.758C347.214 312.193 347.224 311.591 347.224 311.039C347.224 310.482 347.214 309.977 347.205 309.623C347.706 310.763 348.667 312.312 350.262 312.813C350.364 312.845 350.46 312.864 350.552 312.868C350.547 313.352 350.566 313.839 350.552 314.28Z" fill="url(#paint13_linear_19_1924)"/>
<path d="M378.154 304.317C378.099 304.644 377.763 305.204 377.111 305.968C377.142 304.014 376.715 301.049 376.527 299.825C377 299.467 377.254 299.264 377.254 299.264C377.254 299.264 378.402 302.787 378.154 304.317Z" fill="#C54527"/>
<path d="M328.175 287.344C326.429 288.838 325.577 292.094 325.275 293.528C324.728 292.558 324.416 291.91 324.433 291.726C324.543 290.526 326.837 286.265 327.329 286.32C327.413 286.328 327.716 286.709 328.175 287.344Z" fill="#C54527"/>
<path d="M355.549 334.591C351.642 335.156 344.29 335.658 337.932 332.959C338.245 329.929 338.516 324.509 338.613 320.431C341.762 321.764 348.561 324.136 355.702 323.391C355.145 327.305 355.301 331.272 355.549 334.591Z" fill="#FCAF17"/>
<path opacity="0.25" d="M354.781 343.327C348.39 347.428 336.354 340.509 336.07 339.414C335.766 338.265 336.943 337.037 337.6 335.069C337.71 334.734 337.821 333.984 337.931 332.959C338.244 329.929 338.515 324.509 338.612 320.431C338.667 317.828 338.653 315.774 338.534 315.231C338.672 315.654 340.833 322.504 341.94 329.17C343.089 336.052 342.841 339.331 346.202 341.542C348.169 342.834 351.76 343.515 354.781 343.327Z" fill="#010101"/>
<path d="M369.386 362.245C369.386 365.086 359.116 380.828 356.989 384.059C356.745 384.432 356.606 384.639 356.606 384.639C356.606 384.639 355.282 384.487 354.192 384.119C353.434 383.856 352.786 383.498 352.786 383.002C352.786 382.9 352.806 382.744 352.838 382.537C353.201 380.344 355.458 372.409 358.355 361.918C356.829 360.061 346.122 352.958 346.122 352.958C346.122 352.958 346.117 352.967 346.112 352.985C345.648 354.056 330.785 388.426 329.097 391.631C329.037 391.746 328.994 391.819 328.967 391.852C328.204 392.836 325.036 392.942 324.816 390.868C324.816 390.864 324.816 390.864 324.816 390.859C323.906 382.171 331.4 355.964 334.89 344.375C335.515 342.297 336.01 340.688 336.309 339.736C338.056 341.446 348.851 347.133 354.782 343.327C355.076 343.138 355.358 342.927 355.625 342.692C355.836 342.504 355.946 342.081 355.983 341.456C356.093 341.575 356.209 341.704 356.323 341.842C360.459 346.572 369.386 359.509 369.386 362.245Z" fill="#9DC2E7"/>
<path d="M330.144 396.44C329.735 398.486 318.917 404.55 319.902 400.881C320.702 397.906 323.708 392.716 324.816 390.859C324.816 390.864 324.816 390.864 324.816 390.868C325.037 392.942 328.205 392.837 328.967 391.852C328.994 391.82 329.036 391.747 329.096 391.631C329.648 393.213 330.411 395.116 330.144 396.44Z" fill="#262166"/>
<path d="M360.541 394.637C359.718 395.047 349.07 390.95 349.314 389.557C349.562 388.164 352.835 382.537 352.835 382.537C352.803 382.744 352.784 382.9 352.784 383.002C352.784 384.201 356.605 384.639 356.605 384.639C356.605 384.639 356.742 384.432 356.986 384.059C357.461 388.312 361.309 394.252 360.541 394.637Z" fill="#262166"/>
<path opacity="0.25" d="M344.727 351.785C344.727 351.785 332.928 374.956 328.503 390.859" stroke="#010101" stroke-width="0.4597" stroke-miterlimit="10"/>
<path opacity="0.25" d="M347.512 351.785C347.512 351.785 360.621 360.388 361.114 361.781C361.605 363.174 354.313 382.538 354.313 382.538" stroke="#010101" stroke-width="0.4597" stroke-miterlimit="10"/>
<path opacity="0.25" d="M356.322 341.841C354.879 347.606 346.52 346.039 342.245 344.931C339.758 344.287 336.907 344.264 334.89 344.374C335.515 342.296 336.011 340.687 336.31 339.735C338.057 341.445 348.852 347.132 354.783 343.326C355.077 343.137 355.358 342.926 355.625 342.691C355.836 342.503 355.946 342.08 355.983 341.455C356.092 341.575 356.207 341.704 356.322 341.841Z" fill="#010101"/>
<path opacity="0.25" d="M354.192 384.12C353.434 383.857 352.786 383.499 352.786 383.003C352.786 382.901 352.805 382.745 352.837 382.538C353.2 380.345 355.457 372.41 358.354 361.919C356.828 360.062 346.121 352.959 346.121 352.959C346.121 352.959 346.994 350.012 347.978 349.792C348.961 349.576 360.322 359.35 361.577 361.373C362.684 363.15 354.947 377.66 354.192 384.12Z" fill="#010101"/>
<path opacity="0.25" d="M354.123 306.193C354.086 306.524 354.031 306.905 353.953 307.315C351.089 308.773 348.279 305.49 347.944 305.531C347.751 305.554 347.355 306.051 347.034 306.492C347.36 305.411 347.838 304.837 347.838 304.837C349.13 305.715 350.238 306.235 351.186 306.474C352.417 306.791 353.383 306.639 354.123 306.193Z" fill="#010101"/>
<path opacity="0.25" d="M350.551 314.28C348.661 313.82 347.617 311.926 347.223 311.039C347.223 310.482 347.213 309.977 347.204 309.623C347.705 310.763 348.666 312.312 350.261 312.813C350.363 312.845 350.459 312.864 350.551 312.868C350.546 313.352 350.565 313.839 350.551 314.28Z" fill="#010101"/>
<path opacity="0.25" d="M355.701 323.392C355.26 326.504 355.268 329.649 355.416 332.476C354.671 329.336 354.02 325.961 354.782 324.008C356.096 320.643 356.238 320.487 356.257 320.487C356.022 321.443 355.838 322.417 355.701 323.392Z" fill="#010101"/>
<path d="M237 -34L237 354" stroke="#0A2533" stroke-width="0.9195" stroke-miterlimit="10"/>
<path d="M263.715 354.742L228.343 348.664L228.288 348.981L150.173 436.929L148.56 458.914L159.764 460.84L179.156 464.173L205.186 468.647L207.66 469.07L205.798 479.915L204.934 484.932L202.088 501.505L225.111 505.463L237.461 507.583L243.032 475.148L258.571 477.814L263.26 450.519L247.721 447.853L263.715 354.742ZM219.558 399.81L212.344 441.775L203.715 440.29L184.842 437.05L195.292 424.577L197.683 421.722L217.608 397.94L220.426 394.75L219.558 399.81Z" fill="#6561AB"/>
<path opacity="0.25" d="M205.186 468.647L179.156 464.173C182.222 454.045 186.048 440.087 184.843 437.049L203.716 440.289C204.925 442.304 205.881 445.075 206.139 448.878C206.598 455.609 205.595 462.482 205.186 468.647Z" fill="#010101"/>
<path d="M185.969 437.245C185.969 437.245 188.808 433.307 195.199 434.537C201.59 435.767 202.082 443.633 199.296 452.318C196.51 461.003 195.854 491.318 197.164 501.15C198.476 510.982 197.657 515.571 194.544 515.898C191.431 516.226 189.954 504.099 191.757 495.579C193.56 487.058 193.397 479.192 190.447 480.503C187.497 481.815 189.954 485.092 188.479 488.041C187.004 490.99 182.58 489.188 182.744 483.616C182.908 478.044 191.817 441.835 185.969 437.245Z" fill="#9DC2E7"/>
<path opacity="0.25" d="M247.722 447.853L263.261 450.519L258.572 477.814L243.033 475.148L237.461 507.583L225.112 505.462L246.817 370.033L263.716 354.742L247.722 447.853Z" fill="#010101"/>
<path d="M296.631 321.623C300.161 321.623 303.022 318.762 303.022 315.232C303.022 311.702 300.161 308.841 296.631 308.841C293.102 308.841 290.24 311.702 290.24 315.232C290.24 318.762 293.102 321.623 296.631 321.623Z" fill="#F47920"/>
<path d="M518.992 402.839C522.521 402.839 525.383 399.978 525.383 396.448C525.383 392.918 522.521 390.057 518.992 390.057C515.462 390.057 512.601 392.918 512.601 396.448C512.601 399.978 515.462 402.839 518.992 402.839Z" fill="#6561AB"/>
<path d="M184.844 356.178C188.373 356.178 191.235 353.317 191.235 349.787C191.235 346.257 188.373 343.396 184.844 343.396C181.314 343.396 178.453 346.257 178.453 349.787C178.453 353.317 181.314 356.178 184.844 356.178Z" fill="#9DC2E7"/>
<path d="M290.242 551.621C293.771 551.621 296.633 548.76 296.633 545.23C296.633 541.7 293.771 538.839 290.242 538.839C286.712 538.839 283.851 541.7 283.851 545.23C283.851 548.76 286.712 551.621 290.242 551.621Z" fill="#F26647"/>
<path d="M482.458 336.935C483.819 336.935 484.923 335.832 484.923 334.47C484.923 333.109 483.819 332.005 482.458 332.005C481.096 332.005 479.993 333.109 479.993 334.47C479.993 335.832 481.096 336.935 482.458 336.935Z" fill="#F47920"/>
<path d="M294.167 375.318C295.528 375.318 296.632 374.215 296.632 372.853C296.632 371.492 295.528 370.388 294.167 370.388C292.805 370.388 291.702 371.492 291.702 372.853C291.702 374.215 292.805 375.318 294.167 375.318Z" fill="#9DC2E7"/>
<path d="M220.427 341.942C221.788 341.942 222.892 340.838 222.892 339.477C222.892 338.116 221.788 337.012 220.427 337.012C219.065 337.012 217.962 338.116 217.962 339.477C217.962 340.838 219.065 341.942 220.427 341.942Z" fill="#6561AB"/>
<path d="M553.904 204.386C553.904 204.386 544.053 194.554 525.382 198.487C506.71 202.42 493.587 231.916 479.993 238.47C466.398 245.025 439.597 264.38 437.594 280.921C463.777 259.118 473.609 268.622 490.651 266C507.693 263.378 509.004 243.386 533.585 244.042C558.165 244.697 584.384 275.239 608.964 258.166C633.544 241.093 662.385 220.773 639.115 204.059C615.845 187.345 568.652 212.907 553.904 204.386Z" fill="url(#paint14_linear_19_1924)"/>
<path d="M155.055 270.839C155.055 270.839 152.491 284.518 166.268 297.72C180.044 310.922 211.804 305.126 224.883 312.656C237.962 320.186 269.06 331.406 283.85 323.731C251.079 314.404 253.383 300.925 241.607 288.329C229.832 275.734 212.583 285.925 199.263 265.257C185.943 244.588 196.378 205.713 168.418 195.042C140.457 184.371 107.412 172.012 106.731 200.654C106.05 229.296 153.775 253.854 155.055 270.839Z" fill="url(#paint15_linear_19_1924)"/>
<path d="M630.921 349.262C630.921 349.262 590.938 393.13 582.416 444.564C573.895 495.999 532.909 492.721 518.99 516.973C505.07 541.225 471.898 543.192 456.694 553.024C441.49 562.856 406.851 545.814 400.901 553.024C394.952 560.234 431.971 571.378 479.992 572.033C528.013 572.688 537.188 535.327 579.794 530.083C622.4 524.839 665.005 506.486 680.081 437.005C695.158 367.526 669.594 330.343 630.921 349.262Z" fill="url(#paint16_linear_19_1924)"/>
<path d="M53.8615 366.927C53.8615 366.927 93.8445 410.796 102.367 462.229C110.888 513.663 151.873 510.385 165.792 534.638C179.711 558.89 212.885 560.857 228.089 570.689C243.293 580.521 277.932 563.479 283.882 570.689C289.831 577.899 252.811 589.042 204.79 589.698C156.769 590.353 147.594 552.991 104.988 547.748C62.3835 542.504 19.7765 524.151 4.70149 454.671C-10.3755 385.191 15.1885 348.007 53.8615 366.927Z" fill="url(#paint17_linear_19_1924)"/>
<defs>
<linearGradient id="paint0_linear_19_1924" x1="443.703" y1="421.229" x2="451.568" y2="547.077" gradientUnits="userSpaceOnUse">
<stop stop-color="#FCAF17"/>
<stop offset="1" stop-color="#F47920"/>
</linearGradient>
<linearGradient id="paint1_linear_19_1924" x1="145.723" y1="387.175" x2="146.624" y2="378.653" gradientUnits="userSpaceOnUse">
<stop stop-color="#FBC4AF"/>
<stop offset="1" stop-color="#EA8B69"/>
</linearGradient>
<linearGradient id="paint2_linear_19_1924" x1="157.079" y1="384.325" x2="149.213" y2="384.898" gradientUnits="userSpaceOnUse">
<stop stop-color="#FBC4AF"/>
<stop offset="1" stop-color="#EA8B69"/>
</linearGradient>
<linearGradient id="paint3_linear_19_1924" x1="146.782" y1="416.43" x2="153.992" y2="390.539" gradientUnits="userSpaceOnUse">
<stop stop-color="#FBC4AF"/>
<stop offset="1" stop-color="#EA8B69"/>
</linearGradient>
<linearGradient id="paint4_linear_19_1924" x1="434.459" y1="321.502" x2="434.787" y2="314.006" gradientUnits="userSpaceOnUse">
<stop stop-color="#FBC4AF"/>
<stop offset="1" stop-color="#EA8B69"/>
</linearGradient>
<linearGradient id="paint5_linear_19_1924" x1="435.914" y1="324.691" x2="435.668" y2="319.366" gradientUnits="userSpaceOnUse">
<stop stop-color="#FBC4AF"/>
<stop offset="1" stop-color="#EA8B69"/>
</linearGradient>
<linearGradient id="paint6_linear_19_1924" x1="419.477" y1="364.892" x2="425.377" y2="326.547" gradientUnits="userSpaceOnUse">
<stop stop-color="#FBC4AF"/>
<stop offset="1" stop-color="#EA8B69"/>
</linearGradient>
<linearGradient id="paint7_linear_19_1924" x1="452.481" y1="318.642" x2="457.07" y2="342.839" gradientUnits="userSpaceOnUse">
<stop stop-color="#FBC4AF"/>
<stop offset="1" stop-color="#EA8B69"/>
</linearGradient>
<linearGradient id="paint8_linear_19_1924" x1="322.348" y1="282.948" x2="325.216" y2="289.044" gradientUnits="userSpaceOnUse">
<stop stop-color="#FBC4AF"/>
<stop offset="1" stop-color="#EA8B69"/>
</linearGradient>
<linearGradient id="paint9_linear_19_1924" x1="317.998" y1="282.797" x2="325.126" y2="285.787" gradientUnits="userSpaceOnUse">
<stop stop-color="#FBC4AF"/>
<stop offset="1" stop-color="#EA8B69"/>
</linearGradient>
<linearGradient id="paint10_linear_19_1924" x1="322.089" y1="280.502" x2="326.677" y2="290.252" gradientUnits="userSpaceOnUse">
<stop stop-color="#FBC4AF"/>
<stop offset="1" stop-color="#EA8B69"/>
</linearGradient>
<linearGradient id="paint11_linear_19_1924" x1="387.423" y1="290.152" x2="374.396" y2="305.636" gradientUnits="userSpaceOnUse">
<stop stop-color="#FBC4AF"/>
<stop offset="1" stop-color="#EA8B69"/>
</linearGradient>
<linearGradient id="paint12_linear_19_1924" x1="350.988" y1="313.755" x2="349.595" y2="297.531" gradientUnits="userSpaceOnUse">
<stop stop-color="#FBC4AF"/>
<stop offset="1" stop-color="#EA8B69"/>
</linearGradient>
<linearGradient id="paint13_linear_19_1924" x1="348.606" y1="313.881" x2="349.261" y2="309.703" gradientUnits="userSpaceOnUse">
<stop stop-color="#FBC4AF"/>
<stop offset="1" stop-color="#EA8B69"/>
</linearGradient>
<linearGradient id="paint14_linear_19_1924" x1="589.66" y1="224.209" x2="368.766" y2="275.335" gradientUnits="userSpaceOnUse">
<stop stop-color="white" stop-opacity="0"/>
<stop offset="1" stop-color="#9DC2E7"/>
</linearGradient>
<linearGradient id="paint15_linear_19_1924" x1="151.262" y1="230.132" x2="318.05" y2="383.72" gradientUnits="userSpaceOnUse">
<stop stop-color="white" stop-opacity="0"/>
<stop offset="1" stop-color="#9DC2E7"/>
</linearGradient>
<linearGradient id="paint16_linear_19_1924" x1="612.637" y1="447.908" x2="295.561" y2="521.297" gradientUnits="userSpaceOnUse">
<stop stop-color="white" stop-opacity="0"/>
<stop offset="1" stop-color="#9DC2E7"/>
</linearGradient>
<linearGradient id="paint17_linear_19_1924" x1="72.1464" y1="465.571" x2="389.222" y2="538.959" gradientUnits="userSpaceOnUse">
<stop stop-color="white" stop-opacity="0"/>
<stop offset="1" stop-color="#9DC2E7"/>
</linearGradient>
</defs>
</svg>
