<svg xmlns="http://www.w3.org/2000/svg" width="96" height="96" fill="none" viewBox="0 0 96 96" id="light-bulb">
  <path stroke="#000" stroke-width="5" d="M57.1961 72.5975C57.1961 66.9235 60.7892 61.993 64.339 57.5666C67.2568 53.9282 69 49.3226 69 44.3134C69 32.5424 59.3741 23 47.5 23C35.6259 23 26 32.5424 26 44.3134C26 49.3226 27.7432 53.9282 30.661 57.5666C34.2108 61.993 37.8039 66.9235 37.8039 72.5976V73C37.8039 76.3137 40.4902 79 43.8039 79H51.1961C54.5098 79 57.1961 76.3137 57.1961 73V72.5975Z"></path>
  <path stroke="#000" stroke-linecap="round" stroke-width="5" d="M48 30C40.268 30 34 37.1634 34 46"></path>
  <path stroke="#000" stroke-width="5" d="M43 78V81.5C43 83.9853 45.0147 86 47.5 86V86C49.9853 86 52 83.9853 52 81.5V78"></path>
  <path fill="#000" d="M76.7516 49C75.6704 49 74.8226 48.0811 74.8226 47 74.8226 45.9189 75.6704 45 76.7516 45H83.9301C85.0733 45 86 45.8954 86 47 86 48.1046 85.0733 49 83.9301 49H76.7516zM18.2484 45C19.3296 45 20.1774 45.9189 20.1774 47 20.1774 48.0811 19.3296 49 18.2484 49H11.0699C9.92672 49 9 48.1046 9 47 9 45.8954 9.92672 45 11.0699 45H18.2484zM75.135 33.2224C74.1886 33.8058 72.9495 33.4417 72.3936 32.4789 71.8274 31.4982 72.0965 30.2236 73.0605 29.6293L78.0819 26.5336C79.0741 25.9607 80.3428 26.3007 80.9156 27.2929 81.4885 28.2851 81.1485 29.5538 80.1563 30.1267L75.135 33.2224zM64.8194 20.7359C64.2583 21.7078 62.9931 21.9946 62.0212 21.4335 61.0494 20.8724 60.6652 19.6333 61.2263 18.6614L63.9587 13.9287C64.5316 12.9365 65.8003 12.5966 66.7925 13.1694 67.7847 13.7423 68.1247 15.011 67.5518 16.0032L64.8194 20.7359zM50 15.4985C50 16.8547 48.8563 17.9241 47.5 17.9241 46.1437 17.9241 45 16.8547 45 15.4985L45 10.1574C45 8.96591 46.1193 8 47.5 8 48.8807 8 50 8.96591 50 10.1574L50 15.4985zM33.7736 18.6612C34.3347 19.6331 33.9506 20.8722 32.9787 21.4333 32.0068 21.9944 30.7416 21.7075 30.1805 20.7357L27.4481 16.003C26.8753 15.0108 27.2152 13.742 28.2074 13.1692 29.1996 12.5963 30.4683 12.9363 31.0412 13.9285L33.7736 18.6612zM21.9395 29.6289C22.9034 30.2232 23.1726 31.4978 22.6064 32.4785 22.0505 33.4413 20.8113 33.8054 19.865 33.222L14.8435 30.1261C13.8513 29.5532 13.5113 28.2845 14.0842 27.2923 14.657 26.3001 15.9258 25.9601 16.918 26.533L21.9395 29.6289z"></path>
</svg>
