<svg width="51" height="59" viewBox="0 0 51 59" fill="none" xmlns="http://www.w3.org/2000/svg">
<path d="M40.3751 2.45834H19.1251C16.7876 2.45834 14.8751 4.67084 14.8751 7.37501V12.2917C14.8751 13.6438 15.8314 14.75 17.0001 14.75C18.1689 14.75 19.1251 13.6438 19.1251 12.2917V9.83334H40.3751V49.1667H19.1251V46.7083C19.1251 45.3563 18.1689 44.25 17.0001 44.25C15.8314 44.25 14.8751 45.3563 14.8751 46.7083V51.625C14.8751 54.3292 16.7876 56.5417 19.1251 56.5417H40.3751C42.7126 56.5417 44.6251 54.3292 44.6251 51.625V7.37501C44.6251 4.67084 42.7126 2.45834 40.3751 2.45834ZM14.8964 33.1138L10.8164 28.3938C10.0726 27.5333 8.86139 27.5333 8.11764 28.3938C7.37389 29.2542 7.37389 30.6554 8.11764 31.5158L13.3664 37.5879C14.1951 38.5467 15.5339 38.5467 16.3626 37.5879L28.7939 23.2067C29.5376 22.3463 29.5376 20.945 28.7939 20.0846C28.0501 19.2242 26.8389 19.2242 26.0951 20.0846L14.8964 33.1138V33.1138Z" fill="black"/>
</svg>
