<svg width="50" height="50" viewBox="0 0 50 50" fill="none" xmlns="http://www.w3.org/2000/svg">
<path d="M16.3547 10.5547L35.3156 22.0219C37.3266 23.2375 37.3266 26.1547 35.3156 27.3703L16.3547 38.8375C14.2719 40.0969 11.6125 38.5969 11.6125 36.1641V13.2281C11.6125 10.7953 14.2719 9.29532 16.3547 10.5547Z" fill="#D5E9C9"/>
<path d="M15.1906 39.2312C15.5859 39.1734 15.9797 39.064 16.3562 38.8359L31.2437 29.8328L27.0719 24.6953L15.4609 38.7734L15.1906 39.2312ZM31.3078 19.5969L16.3547 10.5547C15.9859 10.3328 15.6 10.2234 15.2141 10.1625L15.1906 10.2984L27.0719 24.6953L31.3078 19.5969Z" fill="#BCDDA8"/>
<path d="M28.9828 18.1906L16.3562 10.5547C14.2719 9.29532 11.6125 10.7953 11.6125 13.2281V35.5594L28.9828 18.1906Z" fill="#BCDDA8"/>
<path d="M15.2156 10.1625L15.1906 10.2984L24.9938 22.1797L28.9828 18.1906L16.3562 10.5547C16.1516 10.4312 15.9391 10.3547 15.7266 10.2828C15.5562 10.2312 15.3859 10.189 15.2156 10.1625Z" fill="#A5D38C"/>
<path d="M14.7391 40.075C14.0828 40.075 13.4234 39.9047 12.8187 39.5641C11.575 38.8625 10.8312 37.5906 10.8312 36.161V13.2281C10.8312 11.8 11.5734 10.5281 12.8172 9.82658C14.0625 9.12346 15.5359 9.14689 16.7594 9.88596L35.7203 21.3531C36.9 22.0672 37.6047 23.3172 37.6047 24.6969C37.6047 26.075 36.9 27.325 35.7203 28.0391L16.7594 39.5047C16.1312 39.8828 15.4344 40.075 14.7391 40.075ZM14.7391 10.8813C14.3453 10.8813 13.95 10.9828 13.5875 11.1875C12.8406 11.6094 12.3953 12.3703 12.3953 13.2281V36.1625C12.3953 37.0203 12.8406 37.7828 13.5875 38.2047C14.3359 38.6266 15.2172 38.6141 15.9516 38.1688L34.9125 26.7031C35.6203 26.275 36.0438 25.525 36.0438 24.6985C36.0438 23.8703 35.6203 23.1203 34.9125 22.6922L15.95 11.2235C15.5734 10.9953 15.1562 10.8813 14.7391 10.8813Z" fill="#54B948"/>
<path d="M31.2906 30.589C31.0641 30.589 30.8422 30.4922 30.6875 30.3047L14.4219 10.5937C14.1469 10.2609 14.1937 9.76873 14.5266 9.49373C14.8594 9.21717 15.3531 9.26561 15.6266 9.59842L31.8922 29.3094C32.1672 29.6422 32.1203 30.1344 31.7875 30.4094C31.6406 30.5312 31.4656 30.589 31.2906 30.589Z" fill="#54B948"/>
<path d="M15.0406 40.0562C14.8656 40.0562 14.6875 39.9969 14.5422 39.8765C14.2109 39.6 14.1641 39.1094 14.4406 38.7765L30.6875 19.1953C30.9625 18.864 31.4562 18.8203 31.7875 19.0937C32.1187 19.3703 32.1656 19.8609 31.8891 20.1937L15.6437 39.7734C15.4891 39.9594 15.2672 40.0562 15.0406 40.0562Z" fill="#54B948"/>
</svg>
