<svg width="54" height="63" viewBox="0 0 54 63" fill="none" xmlns="http://www.w3.org/2000/svg">
<path d="M41.625 23.625C43.875 26.4075 45 29.9093 45 34.125C45 43.2233 36.675 45.3495 32.625 57.75C31.1242 56.2406 30.375 54.054 30.375 51.1875C30.375 42.0473 41.625 37.3013 41.625 23.625ZM32.625 13.125C35.325 16.3748 36.675 19.8765 36.675 23.625C36.675 36.6214 23.0737 38.5665 25.875 57.75C22.1242 54.705 20.25 50.3291 20.25 44.625C20.25 35.8969 32.625 28.875 32.625 13.125ZM22.5 2.625C25.4992 7.00088 27 10.9384 27 14.4375C27 30.8438 7.87498 36.0203 18 57.75C12.114 56.2275 7.87498 49.875 7.87498 42C7.87498 24.9375 22.5 22.3125 22.5 2.625Z" fill="black"/>
</svg>
