<svg width="32" height="32" viewBox="0 0 32 32" fill="none" xmlns="http://www.w3.org/2000/svg">
<g clip-path="url(#clip0_36_3075)">
<path d="M20 -1.90735e-05C20.0442 -8.27799e-06 20.0883 0.00299941 20.132 0.0089817C20.2657 0.0267038 20.3944 0.0712744 20.5104 0.140015C20.6264 0.208755 20.7273 0.300244 20.807 0.408981L31.807 15.409C31.9326 15.5804 32.0003 15.7874 32.0003 16C32.0003 16.2125 31.9326 16.4195 31.807 16.591L20.807 31.591C20.7273 31.6998 20.6264 31.7913 20.5104 31.8601C20.3944 31.9288 20.2657 31.9734 20.132 31.9912C19.9983 32.0089 19.8625 31.9995 19.7325 31.9633C19.6026 31.9272 19.4813 31.8652 19.376 31.781L14.376 27.781C14.1751 27.6203 14.0439 27.3883 14.0097 27.1334C13.9754 26.8784 14.0407 26.62 14.192 26.412L21.764 16L14.192 5.58798C14.0407 5.37993 13.9754 5.12157 14.0097 4.86661C14.0439 4.61165 14.1751 4.3797 14.376 4.21898L19.376 0.218981C19.5531 0.0773263 19.7732 0.000101412 20 -1.90735e-05ZM29.76 16L19.811 2.43198L16.371 5.18398L23.809 15.412C23.9332 15.5829 24.0001 15.7887 24.0001 16C24.0001 16.2112 23.9332 16.4171 23.809 16.588L16.371 26.816L19.811 29.568L29.76 16Z" fill="#43B9AA"/>
<path d="M6 -1.90735e-05C6.04415 -8.27799e-06 6.08825 0.00299941 6.132 0.0089817C6.26567 0.0267038 6.39437 0.0712744 6.51037 0.140015C6.62637 0.208755 6.72727 0.300244 6.807 0.408981L17.807 15.409C17.9326 15.5804 18.0003 15.7874 18.0003 16C18.0003 16.2125 17.9326 16.4195 17.807 16.591L6.807 31.591C6.72729 31.6998 6.6264 31.7913 6.5104 31.8601C6.39441 31.9288 6.2657 31.9734 6.13202 31.9912C5.99834 32.0089 5.86246 31.9995 5.73253 31.9633C5.60261 31.9272 5.48133 31.8652 5.376 31.781L0.375999 27.781C0.175127 27.6203 0.0439192 27.3883 0.00965118 27.1334C-0.0246168 26.8784 0.0406911 26.62 0.191999 26.412L7.764 16L0.191999 5.58798C0.0406911 5.37993 -0.0246168 5.12157 0.00965118 4.86661C0.0439192 4.61165 0.175127 4.3797 0.375999 4.21898L5.376 0.218981C5.55314 0.0773263 5.77318 0.000101412 6 -1.90735e-05ZM15.76 16L5.811 2.43198L2.371 5.18398L9.809 15.412C9.93323 15.5829 10.0001 15.7887 10.0001 16C10.0001 16.2112 9.93323 16.4171 9.809 16.588L2.371 26.816L5.811 29.568L15.76 16Z" fill="#43B9AA"/>
</g>
<defs>
<clipPath id="clip0_36_3075">
<rect width="32" height="32" fill="white" transform="matrix(-1 0 0 -1 32 32)"/>
</clipPath>
</defs>
</svg>
