<svg width="25" height="25" viewBox="0 0 25 25" fill="none" xmlns="http://www.w3.org/2000/svg">
<path d="M8.98429 12.5021L0.739068 20.719C0.506107 20.9519 0.321309 21.2283 0.195232 21.5326C0.0691538 21.8368 0.00426408 22.1629 0.00426408 22.4923C0.00426408 22.8216 0.0691538 23.1477 0.195232 23.4519C0.321309 23.7562 0.506107 24.0326 0.739068 24.2655C0.97203 24.4984 1.24859 24.6831 1.55297 24.8091C1.85735 24.9351 2.18358 25 2.51304 25C2.84249 25 3.16873 24.9351 3.47311 24.8091C3.77748 24.6831 4.05405 24.4984 4.28701 24.2655L14.2812 14.2754C14.5154 14.0432 14.7013 13.767 14.8281 13.4626C14.955 13.1583 15.0203 12.8318 15.0203 12.5021C15.0203 12.1724 14.955 11.846 14.8281 11.5416C14.7013 11.2373 14.5154 10.9611 14.2812 10.7289L4.28701 0.738768C4.05474 0.504679 3.77839 0.318872 3.47392 0.192076C3.16945 0.0652798 2.84288 5.85624e-07 2.51304 5.85624e-07C2.1832 5.85624e-07 1.85662 0.0652798 1.55215 0.192076C1.24768 0.318872 0.971341 0.504679 0.739068 0.738768C0.504883 0.970946 0.319001 1.24717 0.192153 1.55152C0.0653048 1.85587 -1.13709e-06 2.18231 -1.13709e-06 2.51201C-1.13709e-06 2.84172 0.0653048 3.16816 0.192153 3.4725C0.319001 3.77685 0.504883 4.05308 0.739068 4.28526L8.98429 12.5021ZM22.5014 24.9898C23.1641 24.9898 23.7996 24.7266 24.2682 24.2583C24.7368 23.7899 25 23.1546 25 22.4923L25 2.51201C25 1.84963 24.7368 1.21437 24.2682 0.74599C23.7996 0.277612 23.1641 0.0144821 22.5014 0.0144821C21.8388 0.0144821 21.2033 0.277612 20.7347 0.74599C20.2661 1.21437 20.0029 1.84963 20.0029 2.51201L20.0029 22.4923C20.0029 23.1546 20.2661 23.7899 20.7347 24.2583C21.2033 24.7266 21.8388 24.9898 22.5014 24.9898Z" fill="#13DD59"/>
</svg>
