<svg width="30" height="30" viewBox="0 0 30 30" fill="none" xmlns="http://www.w3.org/2000/svg">
<path d="M15 0C6.71625 0 0 6.71625 0 15C0 23.2838 6.71625 30 15 30C23.2838 30 30 23.2838 30 15C30 6.71625 23.2838 0 15 0ZM15 28.125C7.7625 28.125 1.875 22.2375 1.875 15C1.875 7.7625 7.7625 1.875 15 1.875C22.2375 1.875 28.125 7.7625 28.125 15C28.125 22.2375 22.2375 28.125 15 28.125ZM18.75 9.375H11.25C10.7527 9.375 10.2758 9.57254 9.92418 9.92418C9.57254 10.2758 9.375 10.7527 9.375 11.25V18.75C9.375 19.2473 9.57254 19.7242 9.92418 20.0758C10.2758 20.4275 10.7527 20.625 11.25 20.625H18.75C19.2473 20.625 19.7242 20.4275 20.0758 20.0758C20.4275 19.7242 20.625 19.2473 20.625 18.75V11.25C20.625 10.7527 20.4275 10.2758 20.0758 9.92418C19.7242 9.57254 19.2473 9.375 18.75 9.375Z" fill="#FF0000"/>
</svg>
